<svg fill="#4F7B4E" height="200px" width="200px" version="1.1" id="Layer_1" xmlns="http://www.w3.org/2000/svg" xmlns:xlink="http://www.w3.org/1999/xlink" viewBox="0 0 512 512" xml:space="preserve"><g id="SVGRepo_bgCarrier" stroke-width="0"></g><g id="SVGRepo_tracerCarrier" stroke-linecap="round" stroke-linejoin="round"></g><g id="SVGRepo_iconCarrier"> <g> <g> <g> <circle cx="230.4" cy="298.713" r="8.533"></circle> <circle cx="256" cy="281.646" r="8.533"></circle> <circle cx="238.933" cy="332.846" r="8.533"></circle> <circle cx="153.6" cy="324.313" r="8.533"></circle> <circle cx="170.667" cy="298.713" r="8.533"></circle> <circle cx="127.999" cy="298.713" r="8.533"></circle> <circle cx="256" cy="307.246" r="8.533"></circle> <path d="M505.284,307.596c-1.033-2.125-2.901-3.721-5.163-4.412c-2.253-0.674-4.693-0.41-6.741,0.768 c-14.618,8.388-32.256,15.718-52.233,21.948c34.807-50.859,42.377-117.675,22.477-199.083v-0.009 c-5.453-22.272-17.681-38.588-34.423-45.943c-7.782-3.422-15.778-4.941-23.834-4.523c-4.019-6.997-11.75-23.834-12.843-51.038 c-0.171-4.343-3.584-7.859-7.919-8.175c-14.012-0.99-42.854,4.318-51.413,31.556c-1.152,3.669,0.29,7.663,3.524,9.737 c0.307,0.196,30.797,20.463,30.217,43.827c-0.026,1.212-0.563,29.935,9.737,47.232c0.29,0.486,27.213,47.701-23.774,117.163 c-16.239-26.291-45.013-43.989-77.969-44.638c4.309-10.906,6.673-22.494,6.673-34.227c0-51.755-42.112-93.867-93.867-93.867 c-51.755,0-93.867,42.112-93.867,93.867c0,15.522,3.797,30.49,11.042,43.998c-38.195,6.477-69.777,37.726-77.372,76.945 c-3.072-1.553-6.067-3.14-8.917-4.77c-2.048-1.178-4.489-1.442-6.741-0.768c-2.261,0.691-4.13,2.287-5.163,4.412 C2.261,316.667,0,325.977,0,335.287c0,31.368,25.745,59.477,68.267,80.29v70.869c0,4.71,3.823,8.533,8.533,8.533h358.4 c4.71,0,8.533-3.823,8.533-8.533v-70.869C486.255,394.764,512,366.656,512,335.287C512,325.977,509.739,316.667,505.284,307.596z M204.8,281.049c0.87-1.707,1.758-3.396,2.731-5.018c0.973-1.604,2.014-3.14,3.098-4.659c0.845-1.203,1.724-2.381,2.637-3.524 c1.357-1.698,2.773-3.337,4.267-4.907c0.751-0.794,1.527-1.562,2.313-2.321c1.741-1.673,3.524-3.294,5.41-4.804 c0.657-0.521,1.34-1.007,2.005-1.51c2.065-1.536,4.173-3.012,6.374-4.335c0.623-0.375,1.28-0.7,1.92-1.058 c2.295-1.289,4.634-2.526,7.066-3.575c0.691-0.299,1.417-0.521,2.125-0.802c2.44-0.973,4.898-1.903,7.45-2.628 c0.759-0.213,1.553-0.316,2.313-0.503c2.543-0.64,5.086-1.254,7.714-1.621c0.017-0.008,0.034-0.026,0.06-0.026 c3.533-0.495,7.134-0.777,10.786-0.777c31.736,0,59.042,19.354,70.733,46.882c0.358,0.862,0.631,1.749,0.964,2.62 c3.243,8.491,5.103,17.673,5.103,27.298c0,2.739-0.171,5.444-0.461,8.141c-0.094,0.87-0.265,1.732-0.393,2.594 c-0.256,1.818-0.546,3.627-0.93,5.419c-0.222,1.007-0.503,2.005-0.768,3.012c-0.427,1.63-0.887,3.251-1.425,4.855 c-0.35,1.041-0.734,2.074-1.126,3.098c-0.29,0.768-0.64,1.527-0.956,2.287c-20.25,2.261-41.336,3.695-62.831,4.326 c-1.246,0.034-2.475,0.094-3.729,0.119c-9.924,0.247-19.934,0.299-29.986,0.188c-1.382-0.009-2.773-0.026-4.147-0.043 c-10.786-0.171-21.615-0.521-32.452-1.109c0.154-0.606,0.205-1.212,0.333-1.818c0.546-2.415,0.99-4.83,1.331-7.27 c0.145-0.964,0.299-1.937,0.401-2.91c0.367-3.302,0.606-6.605,0.606-9.924c0-3.533-0.23-7.023-0.614-10.47 c-0.102-0.913-0.29-1.818-0.418-2.731c-0.367-2.56-0.785-5.094-1.348-7.595c-0.247-1.118-0.563-2.21-0.853-3.311 c-0.58-2.236-1.22-4.446-1.963-6.613c-0.435-1.28-0.896-2.534-1.382-3.797c-0.734-1.886-1.527-3.729-2.372-5.555 c-0.384-0.845-0.674-1.724-1.084-2.551C203.776,283.08,204.288,282.065,204.8,281.049z M179.2,187.78 c0,4.71-3.823,8.533-8.533,8.533c-4.71,0-8.533-3.823-8.533-8.533c0-4.71,3.823-8.533,8.533-8.533 C175.377,179.246,179.2,183.069,179.2,187.78z M162.133,145.113c4.71,0,8.533,3.823,8.533,8.533s-3.823,8.533-8.533,8.533 c-4.71,0-8.533-3.823-8.533-8.533S157.423,145.113,162.133,145.113z M153.6,204.846c4.71,0,8.533,3.823,8.533,8.533 s-3.823,8.533-8.533,8.533c-4.71,0-8.533-3.823-8.533-8.533S148.89,204.846,153.6,204.846z M136.533,170.713 c4.71,0,8.533,3.823,8.533,8.533s-3.823,8.533-8.533,8.533S128,183.957,128,179.246S131.823,170.713,136.533,170.713z M43.793,316.147c-0.094-0.043-0.188-0.077-0.273-0.119c5.291-38.289,38.204-68.514,75.947-68.514 c0.034,0,0.068,0.009,0.102,0.009h0.008c2.995,0,5.922,0.273,8.832,0.606c1.664,0.213,3.311,0.486,4.949,0.811 c0.777,0.137,1.545,0.307,2.313,0.478c19.149,4.437,35.857,16.495,46.857,32.811c0.922,1.442,1.843,2.884,2.697,4.395 c0.384,0.666,0.802,1.306,1.169,1.971c1.562,2.85,2.935,5.786,4.13,8.772c0.102,0.256,0.188,0.521,0.282,0.777 c1.024,2.628,1.886,5.308,2.628,8.013c0.171,0.657,0.341,1.314,0.503,1.98c0.589,2.398,1.041,4.821,1.408,7.253 c0.102,0.717,0.239,1.425,0.324,2.15c0.367,3.055,0.597,6.135,0.597,9.208c0,3.106-0.273,6.212-0.666,9.31 c-0.085,0.717-0.179,1.434-0.29,2.142c-0.478,3.055-1.101,6.101-1.954,9.114c-0.026,0.085-0.051,0.162-0.077,0.247 c-0.06,0-0.12-0.009-0.171-0.017c-5.035-0.384-9.933-0.87-14.848-1.348c-1.391-2.825-4.233-4.813-7.595-4.813 c-2.705,0-5.009,1.34-6.571,3.302C117.086,339.178,76.032,329.518,43.793,316.147z M426.667,477.913H85.333v-54.4 c20.497,8.209,43.725,14.669,68.676,19.447c0.794,0.162,1.596,0.316,2.398,0.469c4.924,0.913,9.899,1.758,14.95,2.534 c3.311,0.521,6.647,1.016,10.027,1.468c2.722,0.358,5.444,0.717,8.201,1.041c5.461,0.649,11.008,1.212,16.614,1.698 c1.869,0.154,3.746,0.299,5.623,0.444c6.323,0.486,12.715,0.879,19.2,1.161c1.084,0.043,2.176,0.068,3.26,0.111 c7.159,0.256,14.387,0.427,21.717,0.427s14.558-0.171,21.717-0.427c1.084-0.043,2.176-0.068,3.26-0.111 c6.485-0.282,12.877-0.674,19.2-1.161c1.877-0.145,3.755-0.29,5.623-0.444c5.606-0.486,11.153-1.05,16.614-1.698 c2.756-0.324,5.478-0.683,8.201-1.041c3.379-0.452,6.716-0.947,10.027-1.468c5.052-0.777,10.027-1.621,14.942-2.534 c0.811-0.154,1.613-0.316,2.415-0.469c24.943-4.779,48.171-11.238,68.668-19.447V477.913z"></path> </g> </g> </g> </g></svg>