<svg fill="#4F7B4E" height="200px" width="200px" version="1.1" id="Layer_1" xmlns="http://www.w3.org/2000/svg" xmlns:xlink="http://www.w3.org/1999/xlink" viewBox="0 0 511.999 511.999" xml:space="preserve"><g id="SVGRepo_bgCarrier" stroke-width="0"></g><g id="SVGRepo_tracerCarrier" stroke-linecap="round" stroke-linejoin="round"></g><g id="SVGRepo_iconCarrier"> <g> <g> <path d="M271.208,167.374v34.085h27.989v30.417h-27.989v98.304c2.882,1.611,5.563,3.203,8.088,4.702 c10.789,6.41,14.826,8.808,27.896,8.808c13.071,0,17.109-2.399,27.901-8.81c8.054-4.785,17.675-10.494,30.504-14.844 l27.394-114.456L271.208,167.374z"></path> </g> </g> <g> <g> <path d="M240.791,201.459v-34.085L119.01,205.581l28.668,119.782c13.637-6.459,31.517-12.089,57.115-12.089 c14.166,0,25.968,1.726,35.998,4.36v-85.758h-27.989v-30.417H240.791z"></path> </g> </g> <g> <g> <polygon points="333.241,102.553 178.759,102.553 157.043,102.553 157.043,161.77 256,130.724 354.957,161.77 354.957,102.553 "></polygon> </g> </g> <g> <g> <polygon points="271.208,47.136 271.208,16.719 271.208,0 240.791,0 240.791,16.719 240.791,47.136 209.176,47.136 209.176,72.136 302.824,72.136 302.824,47.136 "></polygon> </g> </g> <g> <g> <path d="M468.565,361.034c-13.683-8.129-29.192-17.342-58.97-17.342s-45.287,9.213-58.97,17.342 c-12.297,7.305-22.01,13.075-43.435,13.075c-21.423,0-31.135-5.769-43.432-13.075c-13.682-8.129-29.19-17.342-58.967-17.342 s-45.284,9.213-58.966,17.342c-12.297,7.305-22.009,13.075-43.431,13.075c-21.423,0-31.135-5.77-43.432-13.075 C45.284,352.904,29.775,343.691,0,343.691v30.417c21.422,0,31.134,5.769,43.431,13.075c13.682,8.129,29.19,17.342,58.967,17.342 s45.284-9.213,58.966-17.342c12.297-7.305,22.009-13.075,43.431-13.075c21.423,0,31.135,5.769,43.432,13.075 c13.683,8.129,29.19,17.342,58.967,17.342c29.777,0,45.287-9.213,58.97-17.342c12.298-7.305,22.01-13.075,43.435-13.075 c21.425,0,31.138,5.77,43.435,13.076c13.683,8.128,29.191,17.342,58.969,17.342v-30.417 C490.575,374.109,480.862,368.34,468.565,361.034z"></path> </g> </g> <g> <g> <path d="M468.566,414.771c-13.683-8.129-29.192-17.342-58.97-17.342s-45.287,9.213-58.97,17.342 c-12.297,7.305-22.01,13.075-43.435,13.075c-21.423,0-31.135-5.769-43.432-13.075c-13.682-8.129-29.19-17.342-58.967-17.342 s-45.284,9.213-58.966,17.342c-12.297,7.305-22.009,13.075-43.431,13.075c-21.423,0-31.135-5.77-43.432-13.075 C45.284,406.641,29.775,397.428,0,397.428v7.097v23.32c21.422,0,31.134,5.769,43.431,13.075 c13.682,8.129,29.19,17.342,58.967,17.342s45.284-9.213,58.966-17.342c12.297-7.305,22.009-13.075,43.431-13.075 c21.423,0,31.135,5.769,43.432,13.075c13.683,8.129,29.19,17.342,58.967,17.342c29.777,0,45.287-9.213,58.97-17.342 c12.298-7.305,22.01-13.075,43.435-13.075c21.425,0,31.138,5.77,43.435,13.075c13.683,8.128,29.191,17.342,58.969,17.342v-23.32 v-7.097C490.576,427.845,480.863,422.076,468.566,414.771z"></path> </g> </g> <g> <g> <path d="M468.565,468.507c-13.682-8.128-29.191-17.342-58.97-17.342c-29.777,0-45.287,9.213-58.97,17.342 c-12.297,7.305-22.01,13.075-43.435,13.075c-21.423,0-31.135-5.769-43.432-13.075c-13.682-8.13-29.19-17.342-58.967-17.342 s-45.284,9.213-58.966,17.342c-12.297,7.305-22.009,13.075-43.431,13.075c-21.423,0-31.135-5.77-43.432-13.075 C45.284,460.378,29.775,451.165,0,451.165v30.417c21.422,0,31.134,5.769,43.431,13.075c13.682,8.129,29.19,17.342,58.967,17.342 s45.284-9.213,58.966-17.342c12.297-7.305,22.009-13.075,43.431-13.075c21.423,0,31.135,5.769,43.432,13.075 c13.683,8.129,29.19,17.342,58.967,17.342c29.777,0,45.287-9.213,58.97-17.342c12.298-7.305,22.01-13.075,43.435-13.075 c21.425,0,31.138,5.77,43.435,13.075c13.683,8.128,29.191,17.342,58.969,17.342v-30.417 C490.575,481.582,480.862,475.813,468.565,468.507z"></path> </g> </g> </g></svg>