<svg id="Layer_1" data-name="Layer 1" xmlns="http://www.w3.org/2000/svg" viewBox="0 0 1080 1080"><defs><style>.cls-1,.cls-2{fill:#fff;}.cls-2{fill-rule:evenodd;}</style></defs><path class="cls-1" d="M142.55,644.33h-13v-7.6h35.26v7.6h-13v35.24h-9.27Z"/><path class="cls-1" d="M181.71,636.73v42.84h-9.26V636.73Z"/><path class="cls-1" d="M203,644.33H190v-7.6h35.25v7.6h-13v35.24H203Z"/><path class="cls-1" d="M236.27,669.68l-3.34,9.89h-9.11l14.55-42.84H250l15.17,42.84h-9.74l-3.52-9.89Zm13.66-7.6c-3-9-5-14.81-6-18.66h-.06c-1,4.22-3.19,10.94-5.63,18.66Z"/><path class="cls-1" d="M272.6,679.57V636.73h11.48c5.35,9.62,15.24,27,17.21,31.64h.12c-.48-4.47-.48-11.91-.48-18.94v-12.7h8.4v42.84H298.44c-4.6-8.37-15.56-28.3-17.68-33.25h-.12c.31,3.75.41,12.55.41,20.22v13Z"/><path class="cls-1" d="M330.76,636.73v42.84H321.5V636.73Z"/><path class="cls-1" d="M351.63,636.73v25.53c0,8.22,4.23,10.65,8.85,10.65,5.3,0,8.63-2.88,8.63-10.65V636.73h9.27V661.8c0,14.65-8.58,18.38-18,18.38-9.67,0-18-3.9-18-18.21V636.73Z"/><path class="cls-1" d="M425.87,663.5c0-7.31.12-15.5.3-20.34h-.29c-2,8.74-6.3,23-10.41,36.41h-7.89c-3.12-11.72-7.55-28-9.43-36.53h-.29c.37,5,.55,13.84.55,21.19v15.34H390V636.73h13.79c3.34,11.2,7.08,25.24,8.37,31.62h.07c1.05-5.63,5.75-20.64,9.33-31.62H434.8v42.84h-8.93Z"/><path class="cls-1" d="M472.46,644.33h-13v-7.6h35.25v7.6h-13v35.24h-9.27Z"/><path class="cls-1" d="M511.41,662.43v17.14h-9.05V636.73h18.82c9.34,0,14.37,5.15,14.37,11.76,0,5.75-3.13,8.86-6.23,10.14,2.13.78,5.33,3,5.33,10.66v2.12c0,2.88,0,6.16.61,8.16h-8.78c-.75-1.86-.89-5.07-.89-9.62v-.62c0-4.69-1.18-6.9-8.09-6.9Zm0-7.38h7.77c5.07,0,7-1.93,7-5.51s-2.27-5.43-6.8-5.43h-8Z"/><path class="cls-1" d="M554.5,669.68l-3.34,9.89h-9.11l14.55-42.84h11.63l15.18,42.84h-9.74l-3.52-9.89Zm13.65-7.6c-3-9-5-14.81-6-18.66h-.06c-1.06,4.22-3.2,10.94-5.64,18.66Z"/><path class="cls-1" d="M590.83,636.73h17c12.47,0,20.63,8.22,20.63,20.88,0,12.5-7.92,22-21,22h-16.6Zm9.26,35.36H607c8.21,0,11.84-6.11,11.84-14.45,0-7-3.4-13.42-11.79-13.42h-7Z"/><path class="cls-1" d="M668,661.1H647.47V672h22.6l-1.1,7.59H638.48V636.73h30.38v7.6H647.47v9.17H668Z"/><path class="cls-1" d="M695.77,636.73H705V672h21.34l-1.06,7.59H695.77Z"/><path class="cls-1" d="M743.05,636.73v42.84h-9.26V636.73Z"/><path class="cls-1" d="M791.13,663.5c0-7.31.12-15.5.3-20.34h-.29c-2,8.74-6.3,23-10.41,36.41h-7.88c-3.13-11.72-7.56-28-9.44-36.53h-.29c.37,5,.55,13.84.55,21.19v15.34h-8.44V636.73H769c3.34,11.2,7.08,25.24,8.37,31.62h.07c1-5.63,5.76-20.64,9.33-31.62h13.28v42.84h-8.93Z"/><path class="cls-1" d="M821.52,636.73v42.84h-9.26V636.73Z"/><path class="cls-1" d="M842.81,644.33h-13v-7.6h35.26v7.6h-13v35.24h-9.27Z"/><path class="cls-1" d="M902.19,661.1H881.7V672h22.6l-1.1,7.59H872.71V636.73h30.38v7.6H881.7v9.17h20.49Z"/><path class="cls-1" d="M912.85,636.73h17c12.47,0,20.63,8.22,20.63,20.88,0,12.5-7.92,22-21,22H912.85Zm9.26,35.36h6.95c8.21,0,11.84-6.11,11.84-14.45,0-7-3.4-13.42-11.79-13.42h-7Z"/><path class="cls-2" d="M538.15,399.82V577.87L493.9,551.8v-102H486v61.67l-44.25-25.78V421.38C444.14,421.38,535,399.82,538.15,399.82Z"/><path class="cls-2" d="M546.14,399.82V577.87l44.25-26.07v-102h7.89v61.67l44.25-25.78V421.38C640.15,421.38,549.31,399.82,546.14,399.82Z"/></svg>